<svg width="365" height="184" viewBox="0 0 365 184" fill="none" xmlns="http://www.w3.org/2000/svg">
<circle cx="362.5" cy="181.5" r="2.5" fill="#C4C4C4"/>
<circle cx="307.5" cy="181.5" r="2.5" fill="#C4C4C4"/>
<circle cx="200.5" cy="181.5" r="2.5" fill="#C4C4C4"/>
<circle cx="254.5" cy="181.5" r="2.5" fill="#C4C4C4"/>
<circle cx="147.5" cy="181.5" r="2.5" fill="#C4C4C4"/>
<circle cx="307.5" cy="156.5" r="2.5" fill="#C4C4C4"/>
<circle cx="254.5" cy="156.5" r="2.5" fill="#C4C4C4"/>
<circle cx="186.5" cy="156.5" r="2.5" fill="#C4C4C4"/>
<circle cx="82.5" cy="156.5" r="2.5" fill="#C4C4C4"/>
<circle cx="335.5" cy="181.5" r="2.5" fill="#C4C4C4"/>
<circle cx="335.5" cy="156.5" r="2.5" fill="#C4C4C4"/>
<circle cx="280.5" cy="181.5" r="2.5" fill="#C4C4C4"/>
<circle cx="172.5" cy="181.5" r="2.5" fill="#C4C4C4"/>
<circle cx="227.5" cy="181.5" r="2.5" fill="#C4C4C4"/>
<circle cx="120.5" cy="181.5" r="2.5" fill="#C4C4C4"/>
<circle cx="280.5" cy="156.5" r="2.5" fill="#C4C4C4"/>
<circle cx="227.5" cy="156.5" r="2.5" fill="#C4C4C4"/>
<circle cx="121.5" cy="156.5" r="2.5" fill="#C4C4C4"/>
<circle cx="159.5" cy="156.5" r="2.5" fill="#C4C4C4"/>
<circle cx="55.5" cy="156.5" r="2.5" fill="#C4C4C4"/>
<circle cx="362.5" cy="105.5" r="2.5" fill="#C4C4C4"/>
<circle cx="362.5" cy="143.5" r="2.5" fill="#C4C4C4"/>
<circle cx="362.5" cy="67.5" r="2.5" fill="#C4C4C4"/>
<circle cx="362.5" cy="168.5" r="2.5" fill="#C4C4C4"/>
<circle cx="307.5" cy="168.5" r="2.5" fill="#C4C4C4"/>
<circle cx="307.5" cy="143.5" r="2.5" fill="#C4C4C4"/>
<circle cx="307.5" cy="130.5" r="2.5" fill="#C4C4C4"/>
<circle cx="307.5" cy="117.5" r="2.5" fill="#C4C4C4"/>
<circle cx="307.5" cy="105.5" r="2.5" fill="#C4C4C4"/>
<circle cx="307.5" cy="92.5" r="2.5" fill="#C4C4C4"/>
<circle cx="308.5" cy="79.5" r="2.5" fill="#C4C4C4"/>
<circle cx="308.5" cy="67.5" r="2.5" fill="#C4C4C4"/>
<circle cx="200.5" cy="67.5" r="2.5" fill="#C4C4C4"/>
<circle cx="255.5" cy="67.5" r="2.5" fill="#C4C4C4"/>
<circle cx="147.5" cy="67.5" r="2.5" fill="#C4C4C4"/>
<circle cx="254.5" cy="143.5" r="2.5" fill="#C4C4C4"/>
<circle cx="254.5" cy="130.5" r="2.5" fill="#C4C4C4"/>
<circle cx="254.5" cy="117.5" r="2.5" fill="#C4C4C4"/>
<circle cx="254.5" cy="105.5" r="2.5" fill="#C4C4C4"/>
<circle cx="254.5" cy="92.5" r="2.5" fill="#C4C4C4"/>
<circle cx="255.5" cy="79.5" r="2.5" fill="#C4C4C4"/>
<circle cx="146.5" cy="79.5" r="2.5" fill="#C4C4C4"/>
<circle cx="200.5" cy="79.5" r="2.5" fill="#C4C4C4"/>
<circle cx="91.5" cy="79.5" r="2.5" fill="#C4C4C4"/>
<circle cx="335.5" cy="168.5" r="2.5" fill="#C4C4C4"/>
<circle cx="335.5" cy="143.5" r="2.5" fill="#C4C4C4"/>
<circle cx="335.5" cy="130.5" r="2.5" fill="#C4C4C4"/>
<circle cx="335.5" cy="117.5" r="2.5" fill="#C4C4C4"/>
<circle cx="335.5" cy="105.5" r="2.5" fill="#C4C4C4"/>
<circle cx="335.5" cy="92.5" r="2.5" fill="#C4C4C4"/>
<circle cx="335.5" cy="79.5" r="2.5" fill="#C4C4C4"/>
<circle cx="335.5" cy="67.5" r="2.5" fill="#C4C4C4"/>
<circle cx="335.5" cy="54.5" r="2.5" fill="#C4C4C4"/>
<circle cx="228.5" cy="54.5" r="2.5" fill="#C4C4C4"/>
<circle cx="308.5" cy="54.5" r="2.5" fill="#C4C4C4"/>
<circle cx="201.5" cy="54.5" r="2.5" fill="#C4C4C4"/>
<circle cx="280.5" cy="54.5" r="2.5" fill="#C4C4C4"/>
<circle cx="173.5" cy="54.5" r="2.5" fill="#C4C4C4"/>
<circle cx="280.5" cy="168.5" r="2.5" fill="#C4C4C4"/>
<circle cx="214.5" cy="168.5" r="2.5" fill="#C4C4C4"/>
<circle cx="108.5" cy="168.5" r="2.5" fill="#C4C4C4"/>
<circle cx="254.5" cy="168.5" r="2.5" fill="#C4C4C4"/>
<circle cx="147.5" cy="168.5" r="2.5" fill="#C4C4C4"/>
<circle cx="186.5" cy="168.5" r="2.5" fill="#C4C4C4"/>
<circle cx="82.5" cy="168.5" r="2.5" fill="#C4C4C4"/>
<circle cx="280.5" cy="143.5" r="2.5" fill="#C4C4C4"/>
<circle cx="280.5" cy="130.5" r="2.5" fill="#C4C4C4"/>
<circle cx="280.5" cy="117.5" r="2.5" fill="#C4C4C4"/>
<circle cx="280.5" cy="105.5" r="2.5" fill="#C4C4C4"/>
<circle cx="280.5" cy="92.5" r="2.5" fill="#C4C4C4"/>
<circle cx="281.5" cy="79.5" r="2.5" fill="#C4C4C4"/>
<circle cx="281.5" cy="67.5" r="2.5" fill="#C4C4C4"/>
<circle cx="173.5" cy="67.5" r="2.5" fill="#C4C4C4"/>
<circle cx="228.5" cy="67.5" r="2.5" fill="#C4C4C4"/>
<circle cx="120.5" cy="67.5" r="2.5" fill="#C4C4C4"/>
<circle cx="227.5" cy="143.5" r="2.5" fill="#C4C4C4"/>
<circle cx="121.5" cy="143.5" r="2.5" fill="#C4C4C4"/>
<circle cx="173.5" cy="143.5" r="2.5" fill="#C4C4C4"/>
<circle cx="67.5" cy="143.5" r="2.5" fill="#C4C4C4"/>
<circle cx="227.5" cy="130.5" r="2.5" fill="#C4C4C4"/>
<circle cx="227.5" cy="117.5" r="2.5" fill="#C4C4C4"/>
<circle cx="227.5" cy="105.5" r="2.5" fill="#C4C4C4"/>
<circle cx="227.5" cy="92.5" r="2.5" fill="#C4C4C4"/>
<circle cx="228.5" cy="79.5" r="2.5" fill="#C4C4C4"/>
<circle cx="119.5" cy="79.5" r="2.5" fill="#C4C4C4"/>
<circle cx="173.5" cy="79.5" r="2.5" fill="#C4C4C4"/>
<circle cx="64.5" cy="79.5" r="2.5" fill="#C4C4C4"/>
<circle cx="200.5" cy="143.5" r="2.5" fill="#C4C4C4"/>
<circle cx="94.5" cy="143.5" r="2.5" fill="#C4C4C4"/>
<circle cx="146.5" cy="143.5" r="2.5" fill="#C4C4C4"/>
<circle cx="40.5" cy="143.5" r="2.5" fill="#C4C4C4"/>
<circle cx="200.5" cy="130.5" r="2.5" fill="#C4C4C4"/>
<circle cx="95.5" cy="130.5" r="2.5" fill="#C4C4C4"/>
<circle cx="146.5" cy="130.5" r="2.5" fill="#C4C4C4"/>
<circle cx="41.5" cy="130.5" r="2.5" fill="#C4C4C4"/>
<circle cx="200.5" cy="117.5" r="2.5" fill="#C4C4C4"/>
<circle cx="95.5" cy="117.5" r="2.5" fill="#C4C4C4"/>
<circle cx="146.5" cy="117.5" r="2.5" fill="#C4C4C4"/>
<circle cx="41.5" cy="117.5" r="2.5" fill="#C4C4C4"/>
<circle cx="200.5" cy="105.5" r="2.5" fill="#C4C4C4"/>
<circle cx="95.5" cy="105.5" r="2.5" fill="#C4C4C4"/>
<circle cx="146.5" cy="105.5" r="2.5" fill="#C4C4C4"/>
<circle cx="41.5" cy="105.5" r="2.5" fill="#C4C4C4"/>
<circle cx="200.5" cy="92.5" r="2.5" fill="#C4C4C4"/>
<circle cx="95.5" cy="92.5" r="2.5" fill="#C4C4C4"/>
<circle cx="146.5" cy="92.5" r="2.5" fill="#C4C4C4"/>
<circle cx="41.5" cy="92.5" r="2.5" fill="#C4C4C4"/>
<circle cx="173.5" cy="130.5" r="2.5" fill="#C4C4C4"/>
<circle cx="68.5" cy="130.5" r="2.5" fill="#C4C4C4"/>
<circle cx="121.5" cy="130.5" r="2.5" fill="#C4C4C4"/>
<circle cx="16.5" cy="130.5" r="2.5" fill="#C4C4C4"/>
<circle cx="173.5" cy="117.5" r="2.5" fill="#C4C4C4"/>
<circle cx="68.5" cy="117.5" r="2.5" fill="#C4C4C4"/>
<circle cx="121.5" cy="117.5" r="2.5" fill="#C4C4C4"/>
<circle cx="16.5" cy="117.5" r="2.5" fill="#C4C4C4"/>
<circle cx="173.5" cy="105.5" r="2.5" fill="#C4C4C4"/>
<circle cx="68.5" cy="105.5" r="2.5" fill="#C4C4C4"/>
<circle cx="121.5" cy="105.5" r="2.5" fill="#C4C4C4"/>
<circle cx="16.5" cy="105.5" r="2.5" fill="#C4C4C4"/>
<circle cx="173.5" cy="92.5" r="2.5" fill="#C4C4C4"/>
<circle cx="68.5" cy="92.5" r="2.5" fill="#C4C4C4"/>
<circle cx="121.5" cy="92.5" r="2.5" fill="#C4C4C4"/>
<circle cx="16.5" cy="92.5" r="2.5" fill="#C4C4C4"/>
<circle cx="362.5" cy="92.5" r="2.5" fill="#C4C4C4"/>
<circle cx="362.5" cy="130.5" r="2.5" fill="#C4C4C4"/>
<circle cx="362.5" cy="54.5" r="2.5" fill="#C4C4C4"/>
<circle cx="255.5" cy="54.5" r="2.5" fill="#C4C4C4"/>
<circle cx="362.5" cy="155.5" r="2.5" fill="#C4C4C4"/>
<circle cx="362.5" cy="79.5" r="2.5" fill="#C4C4C4"/>
<circle cx="362.5" cy="117.5" r="2.5" fill="#C4C4C4"/>
<circle cx="362.5" cy="41.5" r="2.5" fill="#C4C4C4"/>
<circle cx="308.5" cy="41.5" r="2.5" fill="#C4C4C4"/>
<circle cx="255.5" cy="41.5" r="2.5" fill="#C4C4C4"/>
<circle cx="362.5" cy="28.5" r="2.5" fill="#C4C4C4"/>
<circle cx="362.5" cy="15.5" r="2.5" fill="#C4C4C4"/>
<circle cx="362.5" cy="2.5" r="2.5" fill="#C4C4C4"/>
<circle cx="335.5" cy="28.5" r="2.5" fill="#C4C4C4"/>
<circle cx="335.5" cy="15.5" r="2.5" fill="#C4C4C4"/>
<circle cx="308.5" cy="28.5" r="2.5" fill="#C4C4C4"/>
<circle cx="281.5" cy="28.5" r="2.5" fill="#C4C4C4"/>
<circle cx="335.5" cy="41.5" r="2.5" fill="#C4C4C4"/>
<circle cx="281.5" cy="41.5" r="2.5" fill="#C4C4C4"/>
<circle cx="228.5" cy="41.5" r="2.5" fill="#C4C4C4"/>
<circle cx="348.5" cy="155.5" r="2.5" fill="#C4C4C4"/>
<circle cx="348.5" cy="79.5" r="2.5" fill="#C4C4C4"/>
<circle cx="348.5" cy="117.5" r="2.5" fill="#C4C4C4"/>
<circle cx="348.5" cy="41.5" r="2.5" fill="#C4C4C4"/>
<circle cx="294.5" cy="41.5" r="2.5" fill="#C4C4C4"/>
<circle cx="241.5" cy="41.5" r="2.5" fill="#C4C4C4"/>
<circle cx="348.5" cy="28.5" r="2.5" fill="#C4C4C4"/>
<circle cx="348.5" cy="15.5" r="2.5" fill="#C4C4C4"/>
<circle cx="348.5" cy="2.5" r="2.5" fill="#C4C4C4"/>
<circle cx="321.5" cy="28.5" r="2.5" fill="#C4C4C4"/>
<circle cx="321.5" cy="15.5" r="2.5" fill="#C4C4C4"/>
<circle cx="294.5" cy="28.5" r="2.5" fill="#C4C4C4"/>
<circle cx="267.5" cy="28.5" r="2.5" fill="#C4C4C4"/>
<circle cx="321.5" cy="41.5" r="2.5" fill="#C4C4C4"/>
<circle cx="267.5" cy="41.5" r="2.5" fill="#C4C4C4"/>
<circle cx="214.5" cy="41.5" r="2.5" fill="#C4C4C4"/>
<circle cx="348.5" cy="168.5" r="2.5" fill="#C4C4C4"/>
<circle cx="293.5" cy="168.5" r="2.5" fill="#C4C4C4"/>
<circle cx="227.5" cy="168.5" r="2.5" fill="#C4C4C4"/>
<circle cx="121.5" cy="168.5" r="2.5" fill="#C4C4C4"/>
<circle cx="293.5" cy="143.5" r="2.5" fill="#C4C4C4"/>
<circle cx="293.5" cy="130.5" r="2.5" fill="#C4C4C4"/>
<circle cx="293.5" cy="117.5" r="2.5" fill="#C4C4C4"/>
<circle cx="293.5" cy="105.5" r="2.5" fill="#C4C4C4"/>
<circle cx="293.5" cy="92.5" r="2.5" fill="#C4C4C4"/>
<circle cx="294.5" cy="79.5" r="2.5" fill="#C4C4C4"/>
<circle cx="294.5" cy="67.5" r="2.5" fill="#C4C4C4"/>
<circle cx="186.5" cy="67.5" r="2.5" fill="#C4C4C4"/>
<circle cx="241.5" cy="67.5" r="2.5" fill="#C4C4C4"/>
<circle cx="133.5" cy="67.5" r="2.5" fill="#C4C4C4"/>
<circle cx="240.5" cy="143.5" r="2.5" fill="#C4C4C4"/>
<circle cx="240.5" cy="130.5" r="2.5" fill="#C4C4C4"/>
<circle cx="240.5" cy="117.5" r="2.5" fill="#C4C4C4"/>
<circle cx="240.5" cy="105.5" r="2.5" fill="#C4C4C4"/>
<circle cx="240.5" cy="92.5" r="2.5" fill="#C4C4C4"/>
<circle cx="241.5" cy="79.5" r="2.5" fill="#C4C4C4"/>
<circle cx="132.5" cy="79.5" r="2.5" fill="#C4C4C4"/>
<circle cx="186.5" cy="79.5" r="2.5" fill="#C4C4C4"/>
<circle cx="77.5" cy="79.5" r="2.5" fill="#C4C4C4"/>
<circle cx="321.5" cy="168.5" r="2.5" fill="#C4C4C4"/>
<circle cx="321.5" cy="143.5" r="2.5" fill="#C4C4C4"/>
<circle cx="321.5" cy="130.5" r="2.5" fill="#C4C4C4"/>
<circle cx="321.5" cy="117.5" r="2.5" fill="#C4C4C4"/>
<circle cx="321.5" cy="105.5" r="2.5" fill="#C4C4C4"/>
<circle cx="321.5" cy="92.5" r="2.5" fill="#C4C4C4"/>
<circle cx="321.5" cy="79.5" r="2.5" fill="#C4C4C4"/>
<circle cx="321.5" cy="67.5" r="2.5" fill="#C4C4C4"/>
<circle cx="321.5" cy="54.5" r="2.5" fill="#C4C4C4"/>
<circle cx="214.5" cy="54.5" r="2.5" fill="#C4C4C4"/>
<circle cx="294.5" cy="54.5" r="2.5" fill="#C4C4C4"/>
<circle cx="187.5" cy="54.5" r="2.5" fill="#C4C4C4"/>
<circle cx="266.5" cy="54.5" r="2.5" fill="#C4C4C4"/>
<circle cx="159.5" cy="54.5" r="2.5" fill="#C4C4C4"/>
<circle cx="266.5" cy="168.5" r="2.5" fill="#C4C4C4"/>
<circle cx="159.5" cy="168.5" r="2.5" fill="#C4C4C4"/>
<circle cx="200.5" cy="168.5" r="2.5" fill="#C4C4C4"/>
<circle cx="94.5" cy="168.5" r="2.5" fill="#C4C4C4"/>
<circle cx="240.5" cy="168.5" r="2.5" fill="#C4C4C4"/>
<circle cx="134.5" cy="168.5" r="2.5" fill="#C4C4C4"/>
<circle cx="172.5" cy="168.5" r="2.5" fill="#C4C4C4"/>
<circle cx="68.5" cy="168.5" r="2.5" fill="#C4C4C4"/>
<circle cx="266.5" cy="143.5" r="2.5" fill="#C4C4C4"/>
<circle cx="266.5" cy="130.5" r="2.5" fill="#C4C4C4"/>
<circle cx="266.5" cy="117.5" r="2.5" fill="#C4C4C4"/>
<circle cx="266.5" cy="105.5" r="2.5" fill="#C4C4C4"/>
<circle cx="266.5" cy="92.5" r="2.5" fill="#C4C4C4"/>
<circle cx="267.5" cy="79.5" r="2.5" fill="#C4C4C4"/>
<circle cx="267.5" cy="67.5" r="2.5" fill="#C4C4C4"/>
<circle cx="159.5" cy="67.5" r="2.5" fill="#C4C4C4"/>
<circle cx="214.5" cy="67.5" r="2.5" fill="#C4C4C4"/>
<circle cx="106.5" cy="67.5" r="2.5" fill="#C4C4C4"/>
<circle cx="213.5" cy="143.5" r="2.5" fill="#C4C4C4"/>
<circle cx="107.5" cy="143.5" r="2.5" fill="#C4C4C4"/>
<circle cx="159.5" cy="143.5" r="2.5" fill="#C4C4C4"/>
<circle cx="53.5" cy="143.5" r="2.5" fill="#C4C4C4"/>
<circle cx="213.5" cy="130.5" r="2.5" fill="#C4C4C4"/>
<circle cx="213.5" cy="117.5" r="2.5" fill="#C4C4C4"/>
<circle cx="213.5" cy="105.5" r="2.5" fill="#C4C4C4"/>
<circle cx="213.5" cy="92.5" r="2.5" fill="#C4C4C4"/>
<circle cx="214.5" cy="79.5" r="2.5" fill="#C4C4C4"/>
<circle cx="105.5" cy="79.5" r="2.5" fill="#C4C4C4"/>
<circle cx="159.5" cy="79.5" r="2.5" fill="#C4C4C4"/>
<circle cx="50.5" cy="79.5" r="2.5" fill="#C4C4C4"/>
<circle cx="186.5" cy="143.5" r="2.5" fill="#C4C4C4"/>
<circle cx="80.5" cy="143.5" r="2.5" fill="#C4C4C4"/>
<circle cx="134.5" cy="143.5" r="2.5" fill="#C4C4C4"/>
<circle cx="28.5" cy="143.5" r="2.5" fill="#C4C4C4"/>
<circle cx="17.5" cy="143.5" r="2.5" fill="#C4C4C4"/>
<circle cx="186.5" cy="130.5" r="2.5" fill="#C4C4C4"/>
<circle cx="81.5" cy="130.5" r="2.5" fill="#C4C4C4"/>
<circle cx="134.5" cy="130.5" r="2.5" fill="#C4C4C4"/>
<circle cx="29.5" cy="130.5" r="2.5" fill="#C4C4C4"/>
<circle cx="186.5" cy="117.5" r="2.5" fill="#C4C4C4"/>
<circle cx="81.5" cy="117.5" r="2.5" fill="#C4C4C4"/>
<circle cx="134.5" cy="117.5" r="2.5" fill="#C4C4C4"/>
<circle cx="29.5" cy="117.5" r="2.5" fill="#C4C4C4"/>
<circle cx="186.5" cy="105.5" r="2.5" fill="#C4C4C4"/>
<circle cx="81.5" cy="105.5" r="2.5" fill="#C4C4C4"/>
<circle cx="134.5" cy="105.5" r="2.5" fill="#C4C4C4"/>
<circle cx="29.5" cy="105.5" r="2.5" fill="#C4C4C4"/>
<circle cx="186.5" cy="92.5" r="2.5" fill="#C4C4C4"/>
<circle cx="81.5" cy="92.5" r="2.5" fill="#C4C4C4"/>
<circle cx="134.5" cy="92.5" r="2.5" fill="#C4C4C4"/>
<circle cx="29.5" cy="92.5" r="2.5" fill="#C4C4C4"/>
<circle cx="159.5" cy="130.5" r="2.5" fill="#C4C4C4"/>
<circle cx="54.5" cy="130.5" r="2.5" fill="#C4C4C4"/>
<circle cx="107.5" cy="130.5" r="2.5" fill="#C4C4C4"/>
<circle cx="2.5" cy="130.5" r="2.5" fill="#C4C4C4"/>
<circle cx="159.5" cy="117.5" r="2.5" fill="#C4C4C4"/>
<circle cx="54.5" cy="117.5" r="2.5" fill="#C4C4C4"/>
<circle cx="107.5" cy="117.5" r="2.5" fill="#C4C4C4"/>
<circle cx="2.5" cy="117.5" r="2.5" fill="#C4C4C4"/>
<circle cx="159.5" cy="105.5" r="2.5" fill="#C4C4C4"/>
<circle cx="54.5" cy="105.5" r="2.5" fill="#C4C4C4"/>
<circle cx="107.5" cy="105.5" r="2.5" fill="#C4C4C4"/>
<circle cx="2.5" cy="105.5" r="2.5" fill="#C4C4C4"/>
<circle cx="159.5" cy="92.5" r="2.5" fill="#C4C4C4"/>
<circle cx="54.5" cy="92.5" r="2.5" fill="#C4C4C4"/>
<circle cx="107.5" cy="92.5" r="2.5" fill="#C4C4C4"/>
<circle cx="2.5" cy="92.5" r="2.5" fill="#C4C4C4"/>
<circle cx="348.5" cy="92.5" r="2.5" fill="#C4C4C4"/>
<circle cx="348.5" cy="130.5" r="2.5" fill="#C4C4C4"/>
<circle cx="348.5" cy="54.5" r="2.5" fill="#C4C4C4"/>
<circle cx="241.5" cy="54.5" r="2.5" fill="#C4C4C4"/>
<circle cx="348.5" cy="181.5" r="2.5" fill="#C4C4C4"/>
<circle cx="293.5" cy="181.5" r="2.5" fill="#C4C4C4"/>
<circle cx="186.5" cy="181.5" r="2.5" fill="#C4C4C4"/>
<circle cx="240.5" cy="181.5" r="2.5" fill="#C4C4C4"/>
<circle cx="133.5" cy="181.5" r="2.5" fill="#C4C4C4"/>
<circle cx="293.5" cy="156.5" r="2.5" fill="#C4C4C4"/>
<circle cx="240.5" cy="156.5" r="2.5" fill="#C4C4C4"/>
<circle cx="134.5" cy="156.5" r="2.5" fill="#C4C4C4"/>
<circle cx="172.5" cy="156.5" r="2.5" fill="#C4C4C4"/>
<circle cx="68.5" cy="156.5" r="2.5" fill="#C4C4C4"/>
<circle cx="321.5" cy="181.5" r="2.5" fill="#C4C4C4"/>
<circle cx="321.5" cy="156.5" r="2.5" fill="#C4C4C4"/>
<circle cx="266.5" cy="181.5" r="2.5" fill="#C4C4C4"/>
<circle cx="159.5" cy="181.5" r="2.5" fill="#C4C4C4"/>
<circle cx="213.5" cy="181.5" r="2.5" fill="#C4C4C4"/>
<circle cx="106.5" cy="181.5" r="2.5" fill="#C4C4C4"/>
<circle cx="266.5" cy="156.5" r="2.5" fill="#C4C4C4"/>
<circle cx="200.5" cy="156.5" r="2.5" fill="#C4C4C4"/>
<circle cx="94.5" cy="156.5" r="2.5" fill="#C4C4C4"/>
<circle cx="213.5" cy="156.5" r="2.5" fill="#C4C4C4"/>
<circle cx="107.5" cy="156.5" r="2.5" fill="#C4C4C4"/>
<circle cx="147.5" cy="156.5" r="2.5" fill="#C4C4C4"/>
<circle cx="41.5" cy="156.5" r="2.5" fill="#C4C4C4"/>
<circle cx="348.5" cy="105.5" r="2.5" fill="#C4C4C4"/>
<circle cx="348.5" cy="143.5" r="2.5" fill="#C4C4C4"/>
<circle cx="348.5" cy="67.5" r="2.5" fill="#C4C4C4"/>
</svg>
